<svg width="24" height="24" viewBox="0 0 24 24" fill="none" xmlns="http://www.w3.org/2000/svg">
<circle cx="12" cy="12" r="8" fill="white"/>
<path d="M16.225 18.0095L15.0982 13.1738L18.8541 9.93439L13.9245 9.51186L11.9996 5.00482L10.0747 9.55881L5.14517 9.93439L8.90103 13.1738L7.77427 18.0095L11.9996 15.4743L16.225 18.0095ZM4.91042 4.95787C6.88226 2.98604 9.24532 2.00012 11.9996 2.00012C14.7539 2.00012 17.1013 2.98604 19.0419 4.95787C21.0137 6.8984 21.9996 9.24582 21.9996 12.0001C21.9996 14.7544 21.0137 17.1175 19.0419 19.0893C17.1013 21.0299 14.7539 22.0001 11.9996 22.0001C9.24532 22.0001 6.88226 21.0299 4.91042 19.0893C2.96989 17.1175 1.99963 14.7544 1.99963 12.0001C1.99963 9.24582 2.96989 6.8984 4.91042 4.95787Z" fill="#21B8F9"/>
</svg>
